<svg width="204" height="76" viewBox="0 0 204 76" fill="none" xmlns="http://www.w3.org/2000/svg">
<g filter="url(#filter0_ddd_752_1116)">
<rect x="7" y="7" width="184" height="56" rx="28" fill="#081D34"/>
</g>
<path d="M73.5085 26H72.1903L74.1989 20.1818H75.7841L77.7898 26H76.4716L75.0142 21.5114H74.9688L73.5085 26ZM73.4261 23.7131H76.5398V24.6733H73.4261V23.7131ZM81.9886 21.6364L80.4631 26H79.0994L77.5739 21.6364H78.8523L79.7585 24.7585H79.804L80.7074 21.6364H81.9886ZM83.7351 26.0824C83.4567 26.0824 83.2086 26.0341 82.9908 25.9375C82.773 25.839 82.6006 25.6941 82.4737 25.5028C82.3487 25.3097 82.2862 25.0691 82.2862 24.7812C82.2862 24.5388 82.3307 24.3352 82.4197 24.1705C82.5088 24.0057 82.63 23.8731 82.7834 23.7727C82.9368 23.6723 83.111 23.5966 83.3061 23.5455C83.5031 23.4943 83.7095 23.4583 83.9254 23.4375C84.1792 23.411 84.3838 23.3864 84.5391 23.3636C84.6944 23.339 84.8071 23.303 84.8771 23.2557C84.9472 23.2083 84.9822 23.1383 84.9822 23.0455V23.0284C84.9822 22.8485 84.9254 22.7093 84.8118 22.6108C84.7 22.5123 84.541 22.4631 84.3345 22.4631C84.1167 22.4631 83.9434 22.5114 83.8146 22.608C83.6858 22.7027 83.6006 22.822 83.5589 22.9659L82.4396 22.875C82.4964 22.6098 82.6082 22.3807 82.7749 22.1875C82.9415 21.9924 83.1565 21.8428 83.4197 21.7386C83.6849 21.6326 83.9917 21.5795 84.3402 21.5795C84.5826 21.5795 84.8146 21.608 85.0362 21.6648C85.2597 21.7216 85.4576 21.8097 85.63 21.929C85.8042 22.0483 85.9415 22.2017 86.0419 22.3892C86.1423 22.5748 86.1925 22.7973 86.1925 23.0568V26H85.0447V25.3949H85.0107C84.9406 25.5312 84.8468 25.6515 84.7294 25.7557C84.612 25.858 84.4709 25.9384 84.3061 25.9972C84.1413 26.054 83.951 26.0824 83.7351 26.0824ZM84.0817 25.2472C84.2597 25.2472 84.4169 25.2121 84.5533 25.142C84.6896 25.0701 84.7966 24.9735 84.8743 24.8523C84.9519 24.7311 84.9908 24.5937 84.9908 24.4403V23.9773C84.9529 24.0019 84.9008 24.0246 84.8345 24.0455C84.7701 24.0644 84.6972 24.0824 84.6158 24.0994C84.5343 24.1146 84.4529 24.1288 84.3714 24.142C84.29 24.1534 84.2161 24.1638 84.1499 24.1733C84.0078 24.1941 83.8838 24.2273 83.7777 24.2727C83.6716 24.3182 83.5893 24.3797 83.5305 24.4574C83.4718 24.5331 83.4425 24.6278 83.4425 24.7415C83.4425 24.9062 83.5021 25.0322 83.6214 25.1193C83.7427 25.2045 83.8961 25.2472 84.0817 25.2472ZM87.1314 26V21.6364H88.3416V26H87.1314ZM87.7393 21.0739C87.5594 21.0739 87.4051 21.0142 87.2763 20.8949C87.1494 20.7737 87.0859 20.6288 87.0859 20.4602C87.0859 20.2936 87.1494 20.1506 87.2763 20.0312C87.4051 19.91 87.5594 19.8494 87.7393 19.8494C87.9193 19.8494 88.0727 19.91 88.1996 20.0312C88.3284 20.1506 88.3928 20.2936 88.3928 20.4602C88.3928 20.6288 88.3284 20.7737 88.1996 20.8949C88.0727 21.0142 87.9193 21.0739 87.7393 21.0739ZM90.5213 20.1818V26H89.3111V20.1818H90.5213ZM92.7351 26.0824C92.4567 26.0824 92.2086 26.0341 91.9908 25.9375C91.773 25.839 91.6006 25.6941 91.4737 25.5028C91.3487 25.3097 91.2862 25.0691 91.2862 24.7812C91.2862 24.5388 91.3307 24.3352 91.4197 24.1705C91.5088 24.0057 91.63 23.8731 91.7834 23.7727C91.9368 23.6723 92.111 23.5966 92.3061 23.5455C92.5031 23.4943 92.7095 23.4583 92.9254 23.4375C93.1792 23.411 93.3838 23.3864 93.5391 23.3636C93.6944 23.339 93.8071 23.303 93.8771 23.2557C93.9472 23.2083 93.9822 23.1383 93.9822 23.0455V23.0284C93.9822 22.8485 93.9254 22.7093 93.8118 22.6108C93.7 22.5123 93.541 22.4631 93.3345 22.4631C93.1167 22.4631 92.9434 22.5114 92.8146 22.608C92.6858 22.7027 92.6006 22.822 92.5589 22.9659L91.4396 22.875C91.4964 22.6098 91.6082 22.3807 91.7749 22.1875C91.9415 21.9924 92.1565 21.8428 92.4197 21.7386C92.6849 21.6326 92.9917 21.5795 93.3402 21.5795C93.5826 21.5795 93.8146 21.608 94.0362 21.6648C94.2597 21.7216 94.4576 21.8097 94.63 21.929C94.8042 22.0483 94.9415 22.2017 95.0419 22.3892C95.1423 22.5748 95.1925 22.7973 95.1925 23.0568V26H94.0447V25.3949H94.0107C93.9406 25.5312 93.8468 25.6515 93.7294 25.7557C93.612 25.858 93.4709 25.9384 93.3061 25.9972C93.1413 26.054 92.951 26.0824 92.7351 26.0824ZM93.0817 25.2472C93.2597 25.2472 93.4169 25.2121 93.5533 25.142C93.6896 25.0701 93.7966 24.9735 93.8743 24.8523C93.9519 24.7311 93.9908 24.5937 93.9908 24.4403V23.9773C93.9529 24.0019 93.9008 24.0246 93.8345 24.0455C93.7701 24.0644 93.6972 24.0824 93.6158 24.0994C93.5343 24.1146 93.4529 24.1288 93.3714 24.142C93.29 24.1534 93.2161 24.1638 93.1499 24.1733C93.0078 24.1941 92.8838 24.2273 92.7777 24.2727C92.6716 24.3182 92.5893 24.3797 92.5305 24.4574C92.4718 24.5331 92.4425 24.6278 92.4425 24.7415C92.4425 24.9062 92.5021 25.0322 92.6214 25.1193C92.7427 25.2045 92.8961 25.2472 93.0817 25.2472ZM96.1541 26V20.1818H97.3643V22.3693H97.4013C97.4543 22.2519 97.531 22.1326 97.6314 22.0114C97.7337 21.8883 97.8662 21.786 98.0291 21.7045C98.1939 21.6212 98.3984 21.5795 98.6428 21.5795C98.9609 21.5795 99.2545 21.6629 99.5234 21.8295C99.7924 21.9943 100.007 22.2434 100.168 22.5767C100.329 22.9081 100.41 23.3239 100.41 23.8239C100.41 24.3106 100.331 24.7216 100.174 25.0568C100.019 25.3902 99.8066 25.643 99.5376 25.8153C99.2706 25.9858 98.9714 26.071 98.6399 26.071C98.4051 26.071 98.2053 26.0322 98.0405 25.9545C97.8776 25.8769 97.7441 25.7794 97.6399 25.6619C97.5357 25.5426 97.4562 25.4223 97.4013 25.3011H97.3473V26H96.1541ZM97.3388 23.8182C97.3388 24.0777 97.3748 24.304 97.4467 24.4972C97.5187 24.6903 97.6229 24.8409 97.7592 24.9489C97.8956 25.0549 98.0613 25.108 98.2564 25.108C98.4534 25.108 98.62 25.054 98.7564 24.946C98.8928 24.8362 98.996 24.6847 99.0661 24.4915C99.138 24.2964 99.174 24.072 99.174 23.8182C99.174 23.5663 99.139 23.3447 99.0689 23.1534C98.9988 22.9621 98.8956 22.8125 98.7592 22.7045C98.6229 22.5966 98.4553 22.5426 98.2564 22.5426C98.0594 22.5426 97.8928 22.5947 97.7564 22.6989C97.6219 22.803 97.5187 22.9508 97.4467 23.142C97.3748 23.3333 97.3388 23.5587 97.3388 23.8182ZM102.428 20.1818V26H101.217V20.1818H102.428ZM105.386 26.0852C104.937 26.0852 104.55 25.9943 104.227 25.8125C103.905 25.6288 103.656 25.3693 103.482 25.0341C103.308 24.697 103.221 24.2983 103.221 23.8381C103.221 23.3892 103.308 22.9953 103.482 22.6562C103.656 22.3172 103.902 22.053 104.218 21.8636C104.536 21.6742 104.909 21.5795 105.337 21.5795C105.625 21.5795 105.893 21.6259 106.141 21.7188C106.391 21.8097 106.609 21.947 106.795 22.1307C106.982 22.3144 107.128 22.5455 107.232 22.8239C107.336 23.1004 107.388 23.4242 107.388 23.7955V24.1278H103.704V23.3778H106.249C106.249 23.2036 106.211 23.0492 106.136 22.9148C106.06 22.7803 105.955 22.6752 105.82 22.5994C105.688 22.5218 105.533 22.483 105.357 22.483C105.174 22.483 105.011 22.5256 104.869 22.6108C104.728 22.6941 104.619 22.8068 104.539 22.9489C104.46 23.089 104.419 23.2453 104.417 23.4176V24.1307C104.417 24.3466 104.457 24.5331 104.536 24.6903C104.618 24.8475 104.732 24.9688 104.88 25.054C105.028 25.1392 105.203 25.1818 105.406 25.1818C105.54 25.1818 105.663 25.1629 105.775 25.125C105.887 25.0871 105.982 25.0303 106.062 24.9545C106.141 24.8788 106.202 24.786 106.244 24.6761L107.363 24.75C107.306 25.0189 107.19 25.2538 107.013 25.4545C106.839 25.6534 106.614 25.8087 106.337 25.9205C106.063 26.0303 105.746 26.0852 105.386 26.0852ZM115.399 23.0909C115.399 23.7254 115.279 24.2652 115.038 24.7102C114.8 25.1553 114.474 25.4953 114.061 25.7301C113.65 25.9631 113.188 26.0795 112.675 26.0795C112.158 26.0795 111.694 25.9621 111.283 25.7273C110.872 25.4924 110.547 25.1525 110.308 24.7074C110.07 24.2623 109.95 23.7235 109.95 23.0909C109.95 22.4564 110.07 21.9167 110.308 21.4716C110.547 21.0265 110.872 20.6875 111.283 20.4545C111.694 20.2197 112.158 20.1023 112.675 20.1023C113.188 20.1023 113.65 20.2197 114.061 20.4545C114.474 20.6875 114.8 21.0265 115.038 21.4716C115.279 21.9167 115.399 22.4564 115.399 23.0909ZM114.152 23.0909C114.152 22.6799 114.09 22.3333 113.967 22.0511C113.846 21.7689 113.675 21.5549 113.453 21.4091C113.232 21.2633 112.972 21.1903 112.675 21.1903C112.377 21.1903 112.118 21.2633 111.896 21.4091C111.675 21.5549 111.502 21.7689 111.379 22.0511C111.258 22.3333 111.197 22.6799 111.197 23.0909C111.197 23.5019 111.258 23.8485 111.379 24.1307C111.502 24.4129 111.675 24.6269 111.896 24.7727C112.118 24.9186 112.377 24.9915 112.675 24.9915C112.972 24.9915 113.232 24.9186 113.453 24.7727C113.675 24.6269 113.846 24.4129 113.967 24.1307C114.09 23.8485 114.152 23.5019 114.152 23.0909ZM117.498 23.4773V26H116.288V21.6364H117.441V22.4062H117.492C117.589 22.1525 117.751 21.9517 117.978 21.804C118.205 21.6544 118.481 21.5795 118.805 21.5795C119.108 21.5795 119.372 21.6458 119.597 21.7784C119.823 21.911 119.998 22.1004 120.123 22.3466C120.248 22.5909 120.31 22.8826 120.31 23.2216V26H119.1V23.4375C119.102 23.1705 119.034 22.9621 118.896 22.8125C118.757 22.661 118.567 22.5852 118.325 22.5852C118.162 22.5852 118.018 22.6203 117.893 22.6903C117.77 22.7604 117.673 22.8627 117.603 22.9972C117.535 23.1297 117.5 23.2898 117.498 23.4773ZM125.437 21.6364V22.5455H122.809V21.6364H125.437ZM123.406 20.5909H124.616V24.6591C124.616 24.7708 124.633 24.858 124.667 24.9205C124.701 24.9811 124.748 25.0237 124.809 25.0483C124.871 25.0729 124.943 25.0852 125.025 25.0852C125.082 25.0852 125.138 25.0805 125.195 25.071C125.252 25.0597 125.296 25.0511 125.326 25.0455L125.516 25.946C125.456 25.965 125.371 25.9867 125.261 26.0114C125.151 26.0379 125.017 26.054 124.86 26.0597C124.568 26.071 124.313 26.0322 124.093 25.9432C123.875 25.8542 123.706 25.7159 123.585 25.5284C123.463 25.3409 123.404 25.1042 123.406 24.8182V20.5909ZM127.529 23.4773V26H126.319V20.1818H127.495V22.4062H127.546C127.645 22.1487 127.804 21.947 128.023 21.8011C128.243 21.6534 128.519 21.5795 128.85 21.5795C129.153 21.5795 129.417 21.6458 129.643 21.7784C129.87 21.9091 130.046 22.0975 130.171 22.3438C130.298 22.5881 130.361 22.8807 130.359 23.2216V26H129.148V23.4375C129.15 23.1686 129.082 22.9593 128.944 22.8097C128.808 22.66 128.616 22.5852 128.37 22.5852C128.205 22.5852 128.059 22.6203 127.933 22.6903C127.808 22.7604 127.709 22.8627 127.637 22.9972C127.567 23.1297 127.531 23.2898 127.529 23.4773ZM133.3 26.0852C132.851 26.0852 132.464 25.9943 132.141 25.8125C131.819 25.6288 131.571 25.3693 131.396 25.0341C131.222 24.697 131.135 24.2983 131.135 23.8381C131.135 23.3892 131.222 22.9953 131.396 22.6562C131.571 22.3172 131.816 22.053 132.132 21.8636C132.45 21.6742 132.823 21.5795 133.251 21.5795C133.539 21.5795 133.807 21.6259 134.055 21.7188C134.305 21.8097 134.523 21.947 134.709 22.1307C134.896 22.3144 135.042 22.5455 135.146 22.8239C135.25 23.1004 135.303 23.4242 135.303 23.7955V24.1278H131.618V23.3778H134.163C134.163 23.2036 134.125 23.0492 134.05 22.9148C133.974 22.7803 133.869 22.6752 133.734 22.5994C133.602 22.5218 133.447 22.483 133.271 22.483C133.088 22.483 132.925 22.5256 132.783 22.6108C132.643 22.6941 132.533 22.8068 132.453 22.9489C132.374 23.089 132.333 23.2453 132.331 23.4176V24.1307C132.331 24.3466 132.371 24.5331 132.45 24.6903C132.532 24.8475 132.646 24.9688 132.794 25.054C132.942 25.1392 133.117 25.1818 133.32 25.1818C133.454 25.1818 133.577 25.1629 133.689 25.125C133.801 25.0871 133.896 25.0303 133.976 24.9545C134.055 24.8788 134.116 24.786 134.158 24.6761L135.277 24.75C135.22 25.0189 135.104 25.2538 134.928 25.4545C134.753 25.6534 134.528 25.8087 134.251 25.9205C133.977 26.0303 133.66 26.0852 133.3 26.0852Z" fill="#CFDDE8"/>
<path d="M75.017 48H72.3807L76.3977 36.3636H79.5682L83.5795 48H80.9432L78.0284 39.0227H77.9375L75.017 48ZM74.8523 43.4261H81.0795V45.3466H74.8523V43.4261ZM84.9347 51.2727V39.2727H87.321V40.7386H87.429C87.535 40.5038 87.6884 40.2652 87.8892 40.0227C88.0938 39.7765 88.3589 39.572 88.6847 39.4091C89.0142 39.2424 89.4233 39.1591 89.9119 39.1591C90.5483 39.1591 91.1354 39.3258 91.6733 39.6591C92.2112 39.9886 92.6411 40.4867 92.9631 41.1534C93.285 41.8163 93.446 42.6477 93.446 43.6477C93.446 44.6212 93.2888 45.4432 92.9744 46.1136C92.6638 46.7803 92.2396 47.286 91.7017 47.6307C91.1676 47.9716 90.5691 48.142 89.9062 48.142C89.4366 48.142 89.0369 48.0644 88.7074 47.9091C88.3816 47.7538 88.1146 47.5587 87.9062 47.3239C87.6979 47.0852 87.5388 46.8447 87.429 46.6023H87.3551V51.2727H84.9347ZM87.304 43.6364C87.304 44.1553 87.3759 44.608 87.5199 44.9943C87.6638 45.3807 87.8722 45.6818 88.1449 45.8977C88.4176 46.1098 88.7491 46.2159 89.1392 46.2159C89.5331 46.2159 89.8665 46.108 90.1392 45.892C90.4119 45.6723 90.6184 45.3693 90.7585 44.983C90.9025 44.5928 90.9744 44.1439 90.9744 43.6364C90.9744 43.1326 90.9044 42.6894 90.7642 42.3068C90.6241 41.9242 90.4176 41.625 90.1449 41.4091C89.8722 41.1932 89.5369 41.0852 89.1392 41.0852C88.7453 41.0852 88.4119 41.1894 88.1392 41.3977C87.8703 41.6061 87.6638 41.9015 87.5199 42.2841C87.3759 42.6667 87.304 43.1174 87.304 43.6364ZM95.0597 51.2727V39.2727H97.446V40.7386H97.554C97.66 40.5038 97.8134 40.2652 98.0142 40.0227C98.2188 39.7765 98.4839 39.572 98.8097 39.4091C99.1392 39.2424 99.5483 39.1591 100.037 39.1591C100.673 39.1591 101.26 39.3258 101.798 39.6591C102.336 39.9886 102.766 40.4867 103.088 41.1534C103.41 41.8163 103.571 42.6477 103.571 43.6477C103.571 44.6212 103.414 45.4432 103.099 46.1136C102.789 46.7803 102.365 47.286 101.827 47.6307C101.293 47.9716 100.694 48.142 100.031 48.142C99.5616 48.142 99.1619 48.0644 98.8324 47.9091C98.5066 47.7538 98.2396 47.5587 98.0312 47.3239C97.8229 47.0852 97.6638 46.8447 97.554 46.6023H97.4801V51.2727H95.0597ZM97.429 43.6364C97.429 44.1553 97.5009 44.608 97.6449 44.9943C97.7888 45.3807 97.9972 45.6818 98.2699 45.8977C98.5426 46.1098 98.8741 46.2159 99.2642 46.2159C99.6581 46.2159 99.9915 46.108 100.264 45.892C100.537 45.6723 100.743 45.3693 100.884 44.983C101.027 44.5928 101.099 44.1439 101.099 43.6364C101.099 43.1326 101.029 42.6894 100.889 42.3068C100.749 41.9242 100.543 41.625 100.27 41.4091C99.9972 41.1932 99.6619 41.0852 99.2642 41.0852C98.8703 41.0852 98.5369 41.1894 98.2642 41.3977C97.9953 41.6061 97.7888 41.9015 97.6449 42.2841C97.5009 42.6667 97.429 43.1174 97.429 43.6364ZM115.246 39.7102C115.2 39.2519 115.005 38.8958 114.661 38.642C114.316 38.3883 113.848 38.2614 113.257 38.2614C112.856 38.2614 112.517 38.3182 112.24 38.4318C111.964 38.5417 111.751 38.6951 111.604 38.892C111.46 39.089 111.388 39.3125 111.388 39.5625C111.38 39.7708 111.424 39.9527 111.518 40.108C111.617 40.2633 111.751 40.3977 111.922 40.5114C112.092 40.6212 112.289 40.7178 112.513 40.8011C112.736 40.8807 112.975 40.9489 113.229 41.0057L114.274 41.2557C114.782 41.3693 115.248 41.5208 115.672 41.7102C116.096 41.8996 116.464 42.1326 116.774 42.4091C117.085 42.6856 117.325 43.0114 117.496 43.3864C117.67 43.7614 117.759 44.1913 117.763 44.6761C117.759 45.3883 117.577 46.0057 117.217 46.5284C116.861 47.0473 116.346 47.4508 115.672 47.7386C115.001 48.0227 114.193 48.1648 113.246 48.1648C112.306 48.1648 111.488 48.0208 110.791 47.733C110.098 47.4451 109.556 47.0189 109.166 46.4545C108.78 45.8864 108.577 45.1837 108.558 44.3466H110.939C110.965 44.7367 111.077 45.0625 111.274 45.3239C111.475 45.5814 111.742 45.7765 112.075 45.9091C112.412 46.0379 112.793 46.1023 113.217 46.1023C113.634 46.1023 113.996 46.0417 114.303 45.9205C114.613 45.7992 114.854 45.6307 115.024 45.4148C115.195 45.1989 115.28 44.9508 115.28 44.6705C115.28 44.4091 115.202 44.1894 115.047 44.0114C114.895 43.8333 114.672 43.6818 114.376 43.5568C114.085 43.4318 113.727 43.3182 113.303 43.2159L112.036 42.8977C111.054 42.6591 110.28 42.286 109.712 41.7784C109.143 41.2708 108.861 40.5871 108.865 39.7273C108.861 39.0227 109.049 38.4072 109.428 37.8807C109.81 37.3542 110.335 36.9432 111.001 36.6477C111.668 36.3523 112.426 36.2045 113.274 36.2045C114.138 36.2045 114.892 36.3523 115.536 36.6477C116.183 36.9432 116.687 37.3542 117.047 37.8807C117.407 38.4072 117.592 39.017 117.604 39.7102H115.246ZM124.014 39.2727V41.0909H118.759V39.2727H124.014ZM119.952 37.1818H122.372V45.3182C122.372 45.5417 122.406 45.7159 122.474 45.8409C122.543 45.9621 122.637 46.0473 122.759 46.0966C122.884 46.1458 123.027 46.1705 123.19 46.1705C123.304 46.1705 123.418 46.161 123.531 46.142C123.645 46.1193 123.732 46.1023 123.793 46.0909L124.173 47.892C124.052 47.9299 123.882 47.9735 123.662 48.0227C123.442 48.0758 123.175 48.108 122.861 48.1193C122.277 48.142 121.766 48.0644 121.327 47.8864C120.891 47.7083 120.552 47.4318 120.31 47.0568C120.067 46.6818 119.948 46.2083 119.952 45.6364V37.1818ZM129.44 48.1705C128.558 48.1705 127.795 47.983 127.151 47.608C126.51 47.2292 126.016 46.7027 125.668 46.0284C125.319 45.3504 125.145 44.5644 125.145 43.6705C125.145 42.7689 125.319 41.9811 125.668 41.3068C126.016 40.6288 126.51 40.1023 127.151 39.7273C127.795 39.3485 128.558 39.1591 129.44 39.1591C130.323 39.1591 131.084 39.3485 131.724 39.7273C132.368 40.1023 132.865 40.6288 133.213 41.3068C133.562 41.9811 133.736 42.7689 133.736 43.6705C133.736 44.5644 133.562 45.3504 133.213 46.0284C132.865 46.7027 132.368 47.2292 131.724 47.608C131.084 47.983 130.323 48.1705 129.44 48.1705ZM129.452 46.2955C129.853 46.2955 130.188 46.1818 130.457 45.9545C130.726 45.7235 130.929 45.4091 131.065 45.0114C131.205 44.6136 131.276 44.161 131.276 43.6534C131.276 43.1458 131.205 42.6932 131.065 42.2955C130.929 41.8977 130.726 41.5833 130.457 41.3523C130.188 41.1212 129.853 41.0057 129.452 41.0057C129.046 41.0057 128.705 41.1212 128.429 41.3523C128.156 41.5833 127.95 41.8977 127.81 42.2955C127.673 42.6932 127.605 43.1458 127.605 43.6534C127.605 44.161 127.673 44.6136 127.81 45.0114C127.95 45.4091 128.156 45.7235 128.429 45.9545C128.705 46.1818 129.046 46.2955 129.452 46.2955ZM135.31 48V39.2727H137.656V40.7955H137.747C137.906 40.2538 138.173 39.8447 138.548 39.5682C138.923 39.2879 139.355 39.1477 139.844 39.1477C139.965 39.1477 140.096 39.1553 140.236 39.1705C140.376 39.1856 140.499 39.2064 140.605 39.233V41.3807C140.491 41.3466 140.334 41.3163 140.134 41.2898C139.933 41.2633 139.749 41.25 139.582 41.25C139.226 41.25 138.908 41.3277 138.628 41.483C138.351 41.6345 138.132 41.8466 137.969 42.1193C137.81 42.392 137.73 42.7064 137.73 43.0625V48H135.31ZM145.428 48.1705C144.53 48.1705 143.757 47.9886 143.109 47.625C142.465 47.2576 141.969 46.7386 141.621 46.0682C141.272 45.3939 141.098 44.5966 141.098 43.6761C141.098 42.7784 141.272 41.9905 141.621 41.3125C141.969 40.6345 142.46 40.1061 143.092 39.7273C143.729 39.3485 144.475 39.1591 145.331 39.1591C145.907 39.1591 146.443 39.2519 146.939 39.4375C147.439 39.6193 147.875 39.8939 148.246 40.2614C148.621 40.6288 148.912 41.0909 149.121 41.6477C149.329 42.2008 149.433 42.8485 149.433 43.5909V44.2557H142.064V42.7557H147.155C147.155 42.4072 147.079 42.0985 146.928 41.8295C146.776 41.5606 146.566 41.3504 146.297 41.1989C146.032 41.0436 145.723 40.9659 145.371 40.9659C145.003 40.9659 144.678 41.0511 144.393 41.2216C144.113 41.3883 143.893 41.6136 143.734 41.8977C143.575 42.178 143.494 42.4905 143.49 42.8352V44.2614C143.49 44.6932 143.57 45.0663 143.729 45.3807C143.892 45.6951 144.121 45.9375 144.416 46.108C144.712 46.2784 145.062 46.3636 145.467 46.3636C145.736 46.3636 145.982 46.3258 146.206 46.25C146.429 46.1742 146.621 46.0606 146.78 45.9091C146.939 45.7576 147.06 45.572 147.143 45.3523L149.382 45.5C149.268 46.0379 149.036 46.5076 148.683 46.9091C148.335 47.3068 147.884 47.6174 147.331 47.8409C146.782 48.0606 146.147 48.1705 145.428 48.1705Z" fill="#CFDDE8"/>
<g clip-path="url(#clip0_752_1116)">
<path d="M44.4358 27.8334C43.1218 27.8334 41.0878 26.3394 38.9458 26.3934C36.1198 26.4294 33.5278 28.0314 32.0698 30.5694C29.1358 35.6634 31.3138 43.1874 34.1758 47.3274C35.5798 49.3434 37.2358 51.6114 39.4318 51.5394C41.5378 51.4494 42.3298 50.1714 44.8858 50.1714C47.4238 50.1714 48.1438 51.5394 50.3758 51.4854C52.6438 51.4494 54.0838 49.4334 55.4698 47.3994C57.0718 45.0594 57.7378 42.7914 57.7738 42.6654C57.7198 42.6474 53.3638 40.9734 53.3098 35.9334C53.2738 31.7214 56.7478 29.7054 56.9098 29.6154C54.9298 26.7174 51.8878 26.3934 50.8258 26.3214C48.0538 26.1054 45.7318 27.8334 44.4358 27.8334ZM49.1158 23.5854C50.2858 22.1814 51.0598 20.2194 50.8438 18.2754C49.1698 18.3474 47.1538 19.3914 45.9478 20.7954C44.8678 22.0374 43.9318 24.0354 44.1838 25.9434C46.0378 26.0874 47.9458 24.9894 49.1158 23.5854Z" fill="#CFDDE8"/>
</g>
<defs>
<filter id="filter0_ddd_752_1116" x="0" y="0" width="204" height="76" filterUnits="userSpaceOnUse" color-interpolation-filters="sRGB">
<feFlood flood-opacity="0" result="BackgroundImageFix"/>
<feColorMatrix in="SourceAlpha" type="matrix" values="0 0 0 0 0 0 0 0 0 0 0 0 0 0 0 0 0 0 127 0" result="hardAlpha"/>
<feOffset/>
<feGaussianBlur stdDeviation="3.5"/>
<feComposite in2="hardAlpha" operator="out"/>
<feColorMatrix type="matrix" values="0 0 0 0 0.054902 0 0 0 0 0.301961 0 0 0 0 0.305882 0 0 0 1 0"/>
<feBlend mode="normal" in2="BackgroundImageFix" result="effect1_dropShadow_752_1116"/>
<feColorMatrix in="SourceAlpha" type="matrix" values="0 0 0 0 0 0 0 0 0 0 0 0 0 0 0 0 0 0 127 0" result="hardAlpha"/>
<feOffset dx="4" dy="4"/>
<feGaussianBlur stdDeviation="4.5"/>
<feComposite in2="hardAlpha" operator="out"/>
<feColorMatrix type="matrix" values="0 0 0 0 0.027451 0 0 0 0 0.0235294 0 0 0 0 0.0941176 0 0 0 1 0"/>
<feBlend mode="normal" in2="effect1_dropShadow_752_1116" result="effect2_dropShadow_752_1116"/>
<feColorMatrix in="SourceAlpha" type="matrix" values="0 0 0 0 0 0 0 0 0 0 0 0 0 0 0 0 0 0 127 0" result="hardAlpha"/>
<feOffset dx="-1" dy="-1"/>
<feGaussianBlur stdDeviation="2"/>
<feComposite in2="hardAlpha" operator="out"/>
<feColorMatrix type="matrix" values="0 0 0 0 0.0666667 0 0 0 0 0.270588 0 0 0 0 0.27451 0 0 0 1 0"/>
<feBlend mode="normal" in2="effect2_dropShadow_752_1116" result="effect3_dropShadow_752_1116"/>
<feBlend mode="normal" in="SourceGraphic" in2="effect3_dropShadow_752_1116" result="shape"/>
</filter>
<clipPath id="clip0_752_1116">
<rect width="36" height="36" fill="white" transform="translate(27 17)"/>
</clipPath>
</defs>
</svg>
